<?xml version="1.0" encoding="UTF-8"?>
<svg id="Layer_2" xmlns="http://www.w3.org/2000/svg" xmlns:xlink="http://www.w3.org/1999/xlink" viewBox="0 0 48 48">
  <defs>
    <style>
      .cls-1 {
        fill: url(#linear-gradient-2);
      }

      .cls-2 {
        fill: url(#linear-gradient-4);
      }

      .cls-3 {
        fill: url(#linear-gradient-3);
      }

      .cls-4 {
        fill: url(#linear-gradient-5);
      }

      .cls-5 {
        fill: url(#linear-gradient-7);
      }

      .cls-6 {
        fill: url(#linear-gradient-9);
      }

      .cls-7 {
        fill: url(#linear-gradient-6);
      }

      .cls-8 {
        fill: url(#linear-gradient-8);
        fill-rule: evenodd;
      }

      .cls-9 {
        fill: url(#linear-gradient);
      }
    </style>
    <linearGradient id="linear-gradient" x1="-12.18" y1="24" x2="37.94" y2="24" gradientUnits="userSpaceOnUse">
      <stop offset="0" stop-color="#3991fa"/>
      <stop offset=".49" stop-color="#3e53c3"/>
      <stop offset="1" stop-color="#27e8ff"/>
    </linearGradient>
    <linearGradient id="linear-gradient-2" x2="37.94" xlink:href="#linear-gradient"/>
    <linearGradient id="linear-gradient-3" x1="-12.18" y1="18.54" x2="37.94" y2="18.54" xlink:href="#linear-gradient"/>
    <linearGradient id="linear-gradient-4" x1="-12.18" y1="22.82" x2="37.94" y2="22.82" xlink:href="#linear-gradient"/>
    <linearGradient id="linear-gradient-5" x1="-12.18" y1="25.88" x2="37.94" y2="25.88" xlink:href="#linear-gradient"/>
    <linearGradient id="linear-gradient-6" x1="-12.18" y1="26.31" x2="37.94" y2="26.31" xlink:href="#linear-gradient"/>
    <linearGradient id="linear-gradient-7" x1="-12.18" y1="26.44" x2="37.94" y2="26.44" xlink:href="#linear-gradient"/>
    <linearGradient id="linear-gradient-8" y1="26.07" x2="37.94" y2="26.07" xlink:href="#linear-gradient"/>
    <linearGradient id="linear-gradient-9" x1="-12.18" y1="23.66" x2="37.94" y2="23.66" xlink:href="#linear-gradient"/>
  </defs>
  <g id="Layer_1-2" data-name="Layer_1">
    <g>
      <path class="cls-9" d="M47.11,5.71s-2.62.84-11.1-.08C27.54,4.7,23.98,0,23.98,0c0,0,0,.01,0,.04-.22.29-3.8,4.68-12,5.58-8.48.92-11.1.08-11.1.08,0,0-1.47,18.67-.63,22.95.84,4.29,7.64,11.77,13.71,15.13,5.69,3.15,9.54,4.09,10,4.19h0s0,0,.02,0c.01,0,.02,0,.02,0h0c.46-.12,4.31-1.05,10-4.2,6.07-3.36,12.88-10.85,13.71-15.13.84-4.29-.63-22.95-.63-22.95ZM43.96,28.19c-.62,3.16-6.45,9.97-12.13,13.11-3.69,2.04-6.48,3.05-7.89,3.49-1.41-.44-4.2-1.45-7.89-3.49-5.68-3.15-11.51-9.95-12.13-13.11-.49-2.49-.05-12,.43-19.11.2,0,.4,0,.61,0,2.15,0,4.66-.16,7.47-.46,5.39-.59,9.15-2.45,11.52-4.11,2.38,1.67,6.14,3.53,11.5,4.11,2.81.31,5.32.46,7.47.46.21,0,.41,0,.61,0,.49,7.12.92,16.63.43,19.11Z"/>
      <g>
        <g>
          <path class="cls-1" d="M24,11.51c8.58,0,15.55,5.6,15.55,12.49s-6.98,12.49-15.55,12.49-15.55-5.6-15.55-12.49,6.98-12.49,15.55-12.49ZM24,12.96c-7.58,0-13.74,4.95-13.74,11.04s6.17,11.04,13.74,11.04,13.74-4.95,13.74-11.04-6.17-11.04-13.74-11.04Z"/>
          <g>
            <g id="Layer_x5F_1">
              <g id="_105555583868928">
                <path class="cls-3" d="M21.87,15.74s0,.02,0,.02c.02.37.4.66.86.65,4.54-.12,8.89,1.93,11.07,5.24.22.33.72.45,1.13.28.41-.17.56-.58.35-.91-2.48-3.75-7.42-6.09-12.6-5.95-.45.01-.81.31-.81.67Z"/>
                <path class="cls-2" d="M21.88,18.11s0,.02,0,.03c.02.37.41.66.87.64,4.55-.17,8.63,2.49,9.49,6.19.19.83.22,1.66.07,2.49-.06.37.25.71.71.76.46.05.88-.2.94-.57.17-.97.14-1.96-.08-2.92-1.01-4.35-5.83-7.48-11.21-7.28-.45.02-.8.31-.8.67Z"/>
                <path class="cls-4" d="M21.87,20.47s0,.03,0,.05c.03.37.43.65.89.62,3.19-.18,6.05,1.65,6.65,4.25.49,2.12-.62,4.22-2.83,5.34-.39.2-.51.61-.26.93.25.31.76.41,1.15.21,2.79-1.42,4.2-4.06,3.58-6.72-.76-3.27-4.37-5.56-8.41-5.34-.44.02-.78.32-.78.67Z"/>
                <path class="cls-7" d="M21.87,29.77c0,.33.3.62.72.66.53.06,1.07.05,1.6-.03,1.34-.2,2.49-.82,3.26-1.74.76-.91,1.04-2.02.78-3.11-.5-2.16-2.97-3.64-5.63-3.38-.46.04-.78.38-.73.75.06.37.47.63.93.58,1.78-.17,3.44.84,3.78,2.3.17.74-.02,1.5-.53,2.12-.51.62-1.28,1.03-2.18,1.16-.35.05-.71.06-1.06.02-.46-.05-.88.21-.94.57,0,.03,0,.06,0,.09Z"/>
                <path class="cls-5" d="M23.07,28.23c.44,0,.88-.11,1.26-.32.48-.28.8-.69.9-1.16.09-.47-.05-.94-.39-1.33-.34-.39-.85-.65-1.43-.74-.59-.09-1.18.02-1.66.29-.38.21-.47.63-.2.93.27.3.79.37,1.16.16.11-.07.25-.09.4-.07.15.02.28.09.37.19.09.1.13.23.1.35-.02.11-.1.21-.21.28-.16.09-.38.1-.56.02-.41-.18-.91-.05-1.13.28-.22.33-.06.73.34.91.33.14.69.21,1.05.21Z"/>
              </g>
            </g>
            <path class="cls-8" d="M19.94,21.11c0-.27-.28-.5-.62-.5-.18,0-.35.06-.46.17h0s0,.01,0,.01l-2.34,1.98-.07.06h-3.2c-.34,0-.62.22-.62.5v4.87c0,.27.28.5.62.5h2.47l.07.06,3.09,2.61c.12.1.28.15.45.15.16,0,.31-.05.43-.14.12-.09.19-.22.19-.36v-9.92ZM18.7,29.78l-.43-.37-1.82-1.53h0s0,0,0,0c-.12-.11-.28-.17-.47-.17h-2.11v-3.87h2.85c.17,0,.33-.06.44-.15l1.12-.95.43-.37v7.43Z"/>
          </g>
        </g>
        <polygon class="cls-6" points="34.7 32.72 36.39 31.44 35.6 30.82 16.32 15.76 14.85 14.61 13.16 15.89 14.19 16.69 33.77 31.99 34.7 32.72"/>
      </g>
    </g>
  </g>
</svg>